{
    "asset" : {
        "generator" : "Khronos glTF Blender I/O v1.4.40",
        "version" : "2.0"
    },
    "extensionsUsed" : [
        "KHR_lights_punctual"
    ],
    "extensionsRequired" : [
        "KHR_lights_punctual"
    ],
    "extensions" : {
        "KHR_lights_punctual" : {
            "lights" : [
                {
                    "color" : [
                        1,
                        1,
                        1
                    ],
                    "intensity" : 100,
                    "type" : "directional",
                    "name" : "\u30a8\u30ea\u30a2.002"
                }
            ]
        }
    },
    "scene" : 0,
    "scenes" : [
        {
            "name" : "Scene",
            "nodes" : [
                0,
                1,
                2,
                3,
                4,
                5,
                6,
                7,
                8,
                10,
                11,
                12,
                13,
                15
            ]
        }
    ],
    "nodes" : [
        {
            "name" : "\u30a8\u30ea\u30a2",
            "rotation" : [
                -0.3916809558868408,
                0,
                -0.01844189502298832,
                0.9199162721633911
            ],
            "translation" : [
                0,
                3.8574440479278564,
                -3.8667948246002197
            ]
        },
        {
            "name" : "\u30e1\u30bf\u30dc\u30fc\u30eb",
            "translation" : [
                0,
                1.4209412336349487,
                0
            ]
        },
        {
            "name" : "\u30e1\u30bf\u30dc\u30fc\u30eb.001",
            "scale" : [
                0.5409052968025208,
                0.5409052968025208,
                0.5409052968025208
            ],
            "translation" : [
                -1.0131809711456299,
                -0.020503520965576172,
                -1.651367425918579
            ]
        },
        {
            "name" : "\u30e1\u30bf\u30dc\u30fc\u30eb.002",
            "scale" : [
                0.7437119483947754,
                0.7437119483947754,
                0.7437119483947754
            ],
            "translation" : [
                0.9665672779083252,
                0.7890313863754272,
                1.4128930568695068
            ]
        },
        {
            "name" : "\u30e1\u30bf\u30dc\u30fc\u30eb.003",
            "scale" : [
                0.8194220066070557,
                0.8194220066070557,
                0.8194220066070557
            ],
            "translation" : [
                -1.525667428970337,
                2.6000540256500244,
                0.5835272073745728
            ]
        },
        {
            "name" : "\u30e1\u30bf\u30dc\u30fc\u30eb.004",
            "scale" : [
                0.7565606236457825,
                0.7565606236457825,
                0.7565606236457825
            ],
            "translation" : [
                -0.38589560985565186,
                1.8199104070663452,
                1.9091341495513916
            ]
        },
        {
            "name" : "\u30e1\u30bf\u30dc\u30fc\u30eb.005",
            "scale" : [
                0.7437119483947754,
                0.7437119483947754,
                0.7437119483947754
            ],
            "translation" : [
                -1.3269085884094238,
                0.7890313863754272,
                2.52609920501709
            ]
        },
        {
            "mesh" : 0,
            "name" : "\u5e73\u9762",
            "scale" : [
                62.218116760253906,
                62.218116760253906,
                62.218116760253906
            ],
            "translation" : [
                33.27691650390625,
                0,
                23.68889617919922
            ]
        },
        {
            "name" : "\u30a8\u30ea\u30a2.001"
        },
        {
            "extensions" : {
                "KHR_lights_punctual" : {
                    "light" : 0
                }
            },
            "name" : "\u30a8\u30ea\u30a2.002_Orientation",
            "rotation" : [
                -0.7071067690849304,
                0,
                0,
                0.7071067690849304
            ]
        },
        {
            "children" : [
                9
            ],
            "name" : "\u30a8\u30ea\u30a2.002",
            "translation" : [
                0,
                14.03492546081543,
                0
            ]
        },
        {
            "mesh" : 1,
            "name" : "\u5186\u67f1",
            "rotation" : [
                -0.17364712059497833,
                0.0006061451858840883,
                -0.0034376203548163176,
                0.9848017692565918
            ],
            "scale" : [
                0.8455153703689575,
                0.8455153703689575,
                0.8455153703689575
            ],
            "translation" : [
                0,
                2.6145896911621094,
                -0.09960764646530151
            ]
        },
        {
            "name" : "\u30e1\u30bf\u30dc\u30fc\u30eb.006",
            "scale" : [
                1.0619291067123413,
                1.0619291067123413,
                1.0619291067123413
            ],
            "translation" : [
                -1.613513708114624,
                1.20406174659729,
                -0.7440157532691956
            ]
        },
        {
            "mesh" : 2,
            "name" : "\u5186\u67f1.001",
            "rotation" : [
                -0.17364712059497833,
                0.0006061451858840883,
                -0.0034376203548163176,
                0.9848017692565918
            ],
            "scale" : [
                0.8455153703689575,
                0.8455153703689575,
                0.8455153703689575
            ],
            "translation" : [
                -0.9358773827552795,
                2.5856683254241943,
                -0.5008103251457214
            ]
        },
        {
            "camera" : 0,
            "name" : "\u30ab\u30e1\u30e9_Orientation",
            "rotation" : [
                -0.7071067690849304,
                0,
                0,
                0.7071067690849304
            ]
        },
        {
            "children" : [
                14
            ],
            "name" : "\u30ab\u30e1\u30e9",
            "rotation" : [
                0.5974862575531006,
                0.3998291790485382,
                -0.45351630449295044,
                0.5267541408538818
            ],
            "translation" : [
                21.987773895263672,
                1,
                5.527953147888184
            ]
        }
    ],
    "cameras" : [
        {
            "name" : "\u30ab\u30e1\u30e9",
            "perspective" : {
                "aspectRatio" : 1.7777777777777777,
                "yfov" : 0.462505375481815,
                "zfar" : 1000,
                "znear" : 0.10000000149011612
            },
            "type" : "perspective"
        }
    ],
    "materials" : [
        {
            "doubleSided" : true,
            "name" : "\u30de\u30c6\u30ea\u30a2\u30eb.008",
            "pbrMetallicRoughness" : {
                "baseColorFactor" : [
                    0.07533639669418335,
                    0.32713425159454346,
                    0.41547101736068726,
                    1
                ],
                "metallicFactor" : 0,
                "roughnessFactor" : 0.8357487916946411
            }
        },
        {
            "doubleSided" : true,
            "name" : "\u30de\u30c6\u30ea\u30a2\u30eb.010",
            "pbrMetallicRoughness" : {
                "baseColorFactor" : [
                    0.7991032600402832,
                    0.7912980914115906,
                    0.5711251497268677,
                    1
                ],
                "metallicFactor" : 0.0917874425649643,
                "roughnessFactor" : 0
            }
        },
        {
            "doubleSided" : true,
            "name" : "\u30de\u30c6\u30ea\u30a2\u30eb.009",
            "pbrMetallicRoughness" : {
                "baseColorFactor" : [
                    0.7991032600402832,
                    0.7912980914115906,
                    0.5711251497268677,
                    1
                ],
                "metallicFactor" : 0.07729468494653702,
                "roughnessFactor" : 0
            }
        }
    ],
    "meshes" : [
        {
            "name" : "\u5e73\u9762.001",
            "primitives" : [
                {
                    "attributes" : {
                        "POSITION" : 0,
                        "NORMAL" : 1,
                        "TEXCOORD_0" : 2
                    },
                    "indices" : 3,
                    "material" : 0
                }
            ]
        },
        {
            "name" : "\u5186\u67f1",
            "primitives" : [
                {
                    "attributes" : {
                        "POSITION" : 4,
                        "NORMAL" : 5,
                        "TEXCOORD_0" : 6
                    },
                    "indices" : 7,
                    "material" : 1
                }
            ]
        },
        {
            "name" : "\u5186\u67f1.001",
            "primitives" : [
                {
                    "attributes" : {
                        "POSITION" : 8,
                        "NORMAL" : 9,
                        "TEXCOORD_0" : 10
                    },
                    "indices" : 7,
                    "material" : 2
                }
            ]
        }
    ],
    "accessors" : [
        {
            "bufferView" : 0,
            "componentType" : 5126,
            "count" : 54,
            "max" : [
                1,
                1.7161866426467896,
                1
            ],
            "min" : [
                -1,
                0,
                -1
            ],
            "type" : "VEC3"
        },
        {
            "bufferView" : 1,
            "componentType" : 5126,
            "count" : 54,
            "type" : "VEC3"
        },
        {
            "bufferView" : 2,
            "componentType" : 5126,
            "count" : 54,
            "type" : "VEC2"
        },
        {
            "bufferView" : 3,
            "componentType" : 5123,
            "count" : 156,
            "type" : "SCALAR"
        },
        {
            "bufferView" : 4,
            "componentType" : 5126,
            "count" : 663,
            "max" : [
                0.758010983467102,
                3.599830150604248,
                0.758010983467102
            ],
            "min" : [
                -0.758010983467102,
                -0.9999997615814209,
                -0.758010983467102
            ],
            "type" : "VEC3"
        },
        {
            "bufferView" : 5,
            "componentType" : 5126,
            "count" : 663,
            "type" : "VEC3"
        },
        {
            "bufferView" : 6,
            "componentType" : 5126,
            "count" : 663,
            "type" : "VEC2"
        },
        {
            "bufferView" : 7,
            "componentType" : 5123,
            "count" : 2292,
            "type" : "SCALAR"
        },
        {
            "bufferView" : 8,
            "componentType" : 5126,
            "count" : 663,
            "max" : [
                0.758010983467102,
                3.599830150604248,
                0.758010983467102
            ],
            "min" : [
                -0.758010983467102,
                -0.9999997615814209,
                -0.758010983467102
            ],
            "type" : "VEC3"
        },
        {
            "bufferView" : 9,
            "componentType" : 5126,
            "count" : 663,
            "type" : "VEC3"
        },
        {
            "bufferView" : 10,
            "componentType" : 5126,
            "count" : 663,
            "type" : "VEC2"
        }
    ],
    "bufferViews" : [
        {
            "buffer" : 0,
            "byteLength" : 648,
            "byteOffset" : 0
        },
        {
            "buffer" : 0,
            "byteLength" : 648,
            "byteOffset" : 648
        },
        {
            "buffer" : 0,
            "byteLength" : 432,
            "byteOffset" : 1296
        },
        {
            "buffer" : 0,
            "byteLength" : 312,
            "byteOffset" : 1728
        },
        {
            "buffer" : 0,
            "byteLength" : 7956,
            "byteOffset" : 2040
        },
        {
            "buffer" : 0,
            "byteLength" : 7956,
            "byteOffset" : 9996
        },
        {
            "buffer" : 0,
            "byteLength" : 5304,
            "byteOffset" : 17952
        },
        {
            "buffer" : 0,
            "byteLength" : 4584,
            "byteOffset" : 23256
        },
        {
            "buffer" : 0,
            "byteLength" : 7956,
            "byteOffset" : 27840
        },
        {
            "buffer" : 0,
            "byteLength" : 7956,
            "byteOffset" : 35796
        },
        {
            "buffer" : 0,
            "byteLength" : 5304,
            "byteOffset" : 43752
        }
    ],
    "buffers" : [
        {
            "byteLength" : 49056,
            "uri" : "data:application/octet-stream;base64,"
        }
    ]
}
